<?xml version="1.0" encoding="iso-8859-1"?>
<!-- Uploaded to: SVG Repo, www.svgrepo.com, Generator: SVG Repo Mixer Tools -->
<svg fill="#000000" height="800px" width="800px" version="1.1" id="Layer_1" xmlns="http://www.w3.org/2000/svg" xmlns:xlink="http://www.w3.org/1999/xlink" 
	 viewBox="0 0 502.4 502.4" xml:space="preserve">
<g>
	<g>
		<path d="M403.733,284.8c-4.267-5.333-10.667-8.533-17.066-8.533H272.533V22.4c0-11.733-9.6-21.333-21.333-21.333
			c-11.733,0-21.333,9.6-21.333,21.333v253.867H115.733c-7.467,0-12.8,3.2-17.067,8.533c-3.2,5.333-5.333,11.733-3.2,18.133
			l52.267,184.533C150.933,496,158.4,502.4,168,502.4h166.4c9.6,0,18.133-6.4,21.333-14.933l51.2-184.533
			C409.066,296.533,408,290.133,403.733,284.8z M319.467,460.8H184l-40.533-142.933H360L319.467,460.8z"/>
	</g>
</g>
<g>
	<g>
		<path d="M480.533,0C377.066,0,292.8,84.267,292.8,186.667c0,11.733,9.6,21.333,21.333,21.333
			c103.467,0,187.733-83.2,187.733-186.667C501.867,9.6,492.267,0,480.533,0z M336.533,165.333
			c9.6-61.867,59.733-110.933,121.6-120.533C448.533,106.667,399.467,155.733,336.533,165.333z"/>
	</g>
</g>
<g>
	<g>
		<path d="M21.867,0C10.133,0,0.533,9.6,0.533,21.333C0.533,124.8,84.8,208,188.267,208c11.733,0,21.333-8.533,21.333-21.333
			c0-1.067,0-2.133,0-3.2C207.467,82.133,124.267,0,21.867,0z M44.267,44.8c61.867,9.6,112,58.667,121.6,120.533
			C102.933,155.733,53.867,106.667,44.267,44.8z"/>
	</g>
</g>
</svg>