<?xml version="1.0" encoding="iso-8859-1"?>
<!-- Uploaded to: SVG Repo, www.svgrepo.com, Generator: SVG Repo Mixer Tools -->
<svg height="800px" width="800px" version="1.1" id="Layer_1" xmlns="http://www.w3.org/2000/svg" xmlns:xlink="http://www.w3.org/1999/xlink" 
	 viewBox="0 0 512 512" xml:space="preserve">
<path style="fill:#00925B;" d="M388.56,48.339c-34.023,0-64.672,13.106-86.306,36.902c-22.18,24.396-33.902,58.289-33.902,98.012
	V319.74l22.723-7.574c43.377-14.459,74.938-37.336,93.805-67.993c14.093-22.901,20.943-49.311,20.943-80.741V48.339H388.56z"/>
<path style="fill:#60DD4D;" d="M289.799,36.239C268.554,12.871,238.457,0,205.051,0h-17.264v146.816
	c0,48.132,13.261,102.641,111.615,141.983l23.676,9.471V132.421C323.078,93.447,311.57,60.188,289.799,36.239z"/>
<path style="fill:#00C47A;" d="M289.799,36.239c-10.843-11.926-23.995-21.11-38.71-27.253v255.248
	c13.233,8.656,29.152,16.899,48.314,24.563l23.676,9.471V132.42C323.078,93.447,311.57,60.188,289.799,36.239z"/>
<path style="fill:#80E471;" d="M211.432,96.75c-21.634-23.797-52.284-36.902-86.306-36.902h-17.264v109.338
	c0,31.43,6.851,57.84,20.943,80.741c18.867,30.657,50.427,53.534,93.804,67.993l22.724,7.574V194.762
	C245.334,155.039,233.61,121.147,211.432,96.75z"/>
<path style="fill:#60DD4D;" d="M333.253,100.131c-25.129,0-47.789,9.702-63.804,27.317c-16.329,17.961-24.959,42.819-24.959,71.888
	v126.159l20.618-6.872c31.581-10.528,54.606-27.257,68.432-49.727c10.348-16.814,15.378-36.152,15.378-59.117V100.131H333.253z"/>
<path style="fill:#00C47A;" d="M186.637,126.602h-17.264v100.131c0,14.254,1.524,32.974,13.407,51.375
	c11.989,18.563,32.235,33.355,61.897,45.22l23.676,9.47V217.525C268.352,163.991,234.75,126.602,186.637,126.602z"/>
<path style="fill:#FFDB2D;" d="M106.176,281.815l10.354,176.018C118.318,488.207,143.55,512,173.978,512h154.221
	c30.427,0,55.66-23.793,57.447-54.167l10.354-176.018L106.176,281.815L106.176,281.815z"/>
<path style="fill:#FFAE33;" d="M251.088,281.815V512h77.11c30.427,0,55.66-23.793,57.447-54.167l10.354-176.018L251.088,281.815
	L251.088,281.815z"/>
<g>
	<path style="fill:#FF318F;" d="M116.531,457.834C118.319,488.208,143.553,512,173.979,512h154.22
		c30.427,0,55.66-23.793,57.446-54.166l4.261-72.436H112.271L116.531,457.834z"/>
	<polygon style="fill:#FF318F;" points="395.999,281.815 106.178,281.815 110.239,350.87 391.938,350.87 	"/>
</g>
<g>
	<polygon style="fill:#BF256B;" points="251.088,281.815 251.088,350.87 391.938,350.87 395.999,281.815 	"/>
	<path style="fill:#BF256B;" d="M251.088,385.398V512h77.11c30.427,0,55.66-23.793,57.446-54.166l4.261-72.436H251.088z"/>
</g>
</svg>