<?xml version="1.0" encoding="iso-8859-1"?>
<!-- Uploaded to: SVG Repo, www.svgrepo.com, Generator: SVG Repo Mixer Tools -->
<svg fill="#000000" height="800px" width="800px" version="1.1" id="Layer_1" xmlns="http://www.w3.org/2000/svg" xmlns:xlink="http://www.w3.org/1999/xlink" 
	 viewBox="0 0 512 512" xml:space="preserve">
<g>
	<g>
		<path d="M347.297,113.058c-38.643-53.957-76.655-96.656-78.255-98.448L256,0l-13.042,14.61
			c-1.599,1.792-39.61,44.492-78.255,98.448c-53.317,74.445-80.351,131.985-80.351,171.022c0,88.745,67.698,161.976,154.164,170.765
			V512h34.969v-57.155c86.466-8.789,154.164-82.019,154.164-170.765C427.648,245.043,400.615,187.503,347.297,113.058z
			 M273.48,419.645v-40.278h0.005L338.3,314.55l-24.726-24.727l-40.091,40.089V274.46l41.503-41.505l-24.727-24.726l-34.262,34.261
			l-34.263-34.261l-24.726,24.726l41.503,41.505v55.452l-40.091-40.089l-24.726,24.727l64.816,64.817v40.278
			c-67.139-8.61-119.195-66.123-119.195-135.565c0-58.406,89.111-175.248,136.682-231.183
			c47.57,55.919,136.677,172.729,136.677,231.183C392.675,353.522,340.619,411.034,273.48,419.645z"/>
	</g>
</g>
</svg>